<svg xmlns="http://www.w3.org/2000/svg" viewBox="0 0 500 500" width="100%" height="100%">
  <defs>
    <linearGradient id="bgGrad" x1="0%" y1="0%" x2="100%" y2="100%">
      <stop offset="0%" stop-color="#1a0000" />
      <stop offset="100%" stop-color="#000000" />
    </linearGradient>
    <linearGradient id="redGlow" x1="0%" y1="0%" x2="100%" y2="100%">
      <stop offset="0%" stop-color="#ff3333" />
      <stop offset="100%" stop-color="#990000" />
    </linearGradient>
    <filter id="glow" x="-20%" y="-20%" width="140%" height="140%">
      <feGaussianBlur stdDeviation="10" result="blur" />
      <feComposite in="SourceGraphic" in2="blur" operator="over" />
    </filter>
  </defs>
  
  <rect width="500" height="500" fill="transparent" />
  
  <g transform="translate(250, 250)">
    <!-- Outer wireframe hexagon representing the bounds of the orchestrator -->
    <polygon points="0,-180 155.88,-90 155.88,90 0,180 -155.88,90 -155.88,-90" 
             fill="none" stroke="#330000" stroke-width="8" stroke-linejoin="round" />
             
    <!-- Inner geometric structure - Top Face -->
    <polygon points="0,-180 155.88,-90 0,0 -155.88,-90" fill="#0d0000" stroke="#ff0000" stroke-width="2" />
    
    <!-- Inner geometric structure - Right Face -->
    <polygon points="0,0 155.88,-90 155.88,90 0,180" fill="#000000" stroke="#cc0000" stroke-width="2" />
    
    <!-- Inner geometric structure - Left Face -->
    <polygon points="0,0 0,180 -155.88,90 -155.88,-90" fill="#1a0000" stroke="#ff3333" stroke-width="2" />
    
    <!-- The glowing core node (3D Isometric) -->
    <!-- Top core face -->
    <polygon points="0,-80 69.28,-40 0,0 -69.28,-40" fill="#ff4d4d" />
    
    <!-- Right core face -->
    <polygon points="0,0 69.28,-40 69.28,40 0,80" fill="#b30000" />
    
    <!-- Left core face -->
    <polygon points="0,0 0,80 -69.28,40 -69.28,-40" fill="#800000" />
    
    <!-- Power lines radiating from the core -->
    <line x1="0" y1="-80" x2="0" y2="-180" stroke="#ff0000" stroke-width="4" filter="url(#glow)" />
    <line x1="69.28" y1="40" x2="155.88" y2="90" stroke="#ff0000" stroke-width="4" filter="url(#glow)" />
    <line x1="-69.28" y1="40" x2="-155.88" y2="90" stroke="#ff0000" stroke-width="4" filter="url(#glow)" />
    
    <line x1="0" y1="80" x2="0" y2="180" stroke="#ff0000" stroke-width="2" stroke-dasharray="5,5" />
    <line x1="-69.28" y1="-40" x2="-155.88" y2="-90" stroke="#ff0000" stroke-width="2" stroke-dasharray="5,5" />
    <line x1="69.28" y1="-40" x2="155.88" y2="-90" stroke="#ff0000" stroke-width="2" stroke-dasharray="5,5" />
    
    <!-- Terminal connection dots -->
    <circle cx="0" cy="-180" r="8" fill="#ff3333" filter="url(#glow)" />
    <circle cx="155.88" cy="90" r="8" fill="#ff3333" filter="url(#glow)" />
    <circle cx="-155.88" cy="90" r="8" fill="#ff3333" filter="url(#glow)" />
    <circle cx="0" cy="180" r="5" fill="#800000" />
    <circle cx="-155.88" cy="-90" r="5" fill="#800000" />
    <circle cx="155.88" cy="-90" r="5" fill="#800000" />
  </g>
</svg>
